<svg width="63" height="63" viewBox="0 0 63 63" fill="none" xmlns="http://www.w3.org/2000/svg">
<path d="M27.0714 44.666C25.5362 44.4956 24.0261 44.1463 22.572 43.6252C22.6163 42.5801 22.6429 41.4906 22.6429 40.3569V38.8645C24.0157 39.5199 25.5081 39.9761 27.0714 40.2019V29.2854C27.0714 27.5236 27.7713 25.8339 29.0171 24.5881C30.2629 23.3423 31.9525 22.6424 33.7143 22.6424H44.6307C44.2775 20.1885 43.3409 17.8551 41.8994 15.838C40.4578 13.8209 38.5535 12.179 36.3462 11.0502C34.1388 9.92138 31.6929 9.3385 29.2138 9.3505C26.7346 9.3625 24.2944 9.96903 22.0981 11.1192C21.7478 9.67073 21.1709 8.2867 20.3887 7.01829C23.2596 5.5853 26.4341 4.86672 29.6422 4.92365C32.8504 4.98057 35.9974 5.81131 38.8157 7.34524C41.6339 8.87917 44.0401 11.0709 45.8297 13.7342C47.6193 16.3975 48.7394 19.4535 49.0947 22.6424H55.8571C57.6189 22.6424 59.3086 23.3423 60.5544 24.5881C61.8001 25.8339 62.5 27.5236 62.5 29.2854V51.4285C62.5 53.1903 61.8001 54.8799 60.5544 56.1257C59.3086 57.3715 57.6189 58.0714 55.8571 58.0714H33.7143C31.9525 58.0714 30.2629 57.3715 29.0171 56.1257C27.7713 54.8799 27.0714 53.1903 27.0714 51.4285V44.666ZM49.0947 27.0711C48.5915 31.5643 46.5761 35.7531 43.379 38.9502C40.182 42.1473 35.9932 44.1628 31.5 44.666V51.4285C31.5 52.0157 31.7333 52.5789 32.1485 52.9942C32.5638 53.4095 33.127 53.6428 33.7143 53.6428H55.8571C56.4444 53.6428 57.0076 53.4095 57.4229 52.9942C57.8381 52.5789 58.0714 52.0157 58.0714 51.4285V29.2854C58.0714 28.6981 57.8381 28.1349 57.4229 27.7196C57.0076 27.3044 56.4444 27.0711 55.8571 27.0711H49.0947ZM44.6307 27.0711H33.7143C33.127 27.0711 32.5638 27.3044 32.1485 27.7196C31.7333 28.1349 31.5 28.6981 31.5 29.2854V40.2019C34.8125 39.7231 37.8812 38.1856 40.2478 35.8189C42.6144 33.4523 44.1519 30.3836 44.6307 27.0711ZM17.3064 29.5555C16.8414 27.8461 16.0886 26.1322 14.7954 24.8169C16.8857 22.8373 18.2143 19.6841 18.2143 15.9995C18.2143 12.9128 17.5899 10.7915 16.4606 9.09531C15.9595 8.36579 15.3804 7.6931 14.7334 7.08914C14.4855 6.84977 14.2345 6.61356 13.9806 6.38057C13.7104 6.12813 13.4624 5.89785 13.1391 5.57456C12.4749 4.91026 12.3996 4.37883 12.3996 4.09983C12.4003 3.94475 12.4257 3.79077 12.4749 3.64368C12.6773 3.2058 12.7313 2.71378 12.6285 2.24244C12.5257 1.7711 12.2717 1.34622 11.9053 1.03243C11.5389 0.71864 11.08 0.533099 10.5985 0.504026C10.1169 0.474953 9.63908 0.603938 9.23757 0.871366L9.22871 0.875795L9.21543 0.884652L9.17557 0.911224L9.04271 0.999796C8.37843 1.47362 7.73842 1.9806 7.12514 2.51881C6.018 3.49754 4.57429 4.94569 3.55129 6.67285C2.65826 8.10475 1.94155 9.63932 1.41671 11.2432C0.885286 12.8331 0.5 14.5558 0.5 15.9995C0.5 19.6841 1.82857 22.8329 3.91886 24.8213C2.62571 26.1322 1.87286 27.8461 1.40786 29.5599C0.5 32.8903 0.5 37.0089 0.5 40.1931V40.3569C0.5 49.471 2.205 54.8828 4.13586 58.1024C5.10571 59.7144 6.11543 60.7551 6.96129 61.4106C7.41199 61.7621 7.90251 62.0594 8.42271 62.2963C8.72355 62.4061 9.03789 62.4746 9.35714 62.5C9.72914 62.5 10.2916 62.2963 10.2916 62.2963C10.8118 62.0594 11.3023 61.7621 11.753 61.4106C12.5944 60.7551 13.613 59.7144 14.5784 58.1024C16.5093 54.8872 18.2143 49.471 18.2143 40.3569V40.1975C18.2143 37.0089 18.2143 32.8947 17.3064 29.5555ZM7.08529 27.9169C7.58571 27.4121 8.25443 27.0711 9.35714 27.0711C10.4643 27.0711 11.1286 27.4165 11.629 27.9125C12.187 28.4749 12.6697 29.3872 13.0329 30.7202C13.768 33.4261 13.7857 36.9779 13.7857 40.3569C13.7857 48.9573 12.1693 53.5099 10.7787 55.8261C10.2473 56.7118 9.74686 57.2831 9.35714 57.6418C8.80032 57.1064 8.32175 56.4951 7.93557 55.8261C6.545 53.5055 4.92857 48.9573 4.92857 40.3569C4.92857 36.9779 4.94629 33.4261 5.68143 30.7202C6.04457 29.3917 6.52729 28.4749 7.08529 27.9125V27.9169ZM9.35714 22.6424C7.65214 22.6424 4.92857 20.747 4.92857 15.9995C4.92857 15.2334 5.15886 14.0199 5.61943 12.6471C6.03914 11.351 6.61778 10.1118 7.34214 8.95802C7.72743 8.30701 8.22786 7.67372 8.76814 7.09357C9.07371 7.63386 9.47671 8.17858 10.0081 8.71002C10.3314 9.03331 10.7521 9.42303 11.1109 9.7596L11.66 10.2733C12.125 10.725 12.4837 11.1192 12.7716 11.5576C13.303 12.3503 13.7857 13.5505 13.7857 15.9995C13.7857 20.747 11.0621 22.6424 9.35714 22.6424Z" fill="#0090D9"/>
</svg>
