<svg width="28" height="28" viewBox="0 0 28 28" fill="none" xmlns="http://www.w3.org/2000/svg">
<path d="M14.0003 13.9999C14.642 13.9999 15.1915 13.7713 15.6488 13.3139C16.1054 12.8574 16.3337 12.3083 16.3337 11.6666C16.3337 11.0249 16.1054 10.4754 15.6488 10.0181C15.1915 9.56153 14.642 9.33325 14.0003 9.33325C13.3587 9.33325 12.8095 9.56153 12.353 10.0181C11.8957 10.4754 11.667 11.0249 11.667 11.6666C11.667 12.3083 11.8957 12.8574 12.353 13.3139C12.8095 13.7713 13.3587 13.9999 14.0003 13.9999ZM14.0003 22.5749C16.3725 20.3971 18.1323 18.4185 19.2795 16.6389C20.4267 14.8601 21.0003 13.2805 21.0003 11.8999C21.0003 9.78047 20.3244 8.04486 18.9727 6.69309C17.6217 5.34209 15.9642 4.66659 14.0003 4.66659C12.0364 4.66659 10.3786 5.34209 9.02683 6.69309C7.67583 8.04486 7.00033 9.78047 7.00033 11.8999C7.00033 13.2805 7.57394 14.8601 8.72116 16.6389C9.86838 18.4185 11.6281 20.3971 14.0003 22.5749ZM14.0003 25.6666C10.8698 23.0027 8.53177 20.5282 6.98633 18.2431C5.4401 15.9588 4.66699 13.8444 4.66699 11.8999C4.66699 8.98325 5.60538 6.65964 7.48216 4.92909C9.35816 3.19853 11.5309 2.33325 14.0003 2.33325C16.4698 2.33325 18.6425 3.19853 20.5185 4.92909C22.3953 6.65964 23.3337 8.98325 23.3337 11.8999C23.3337 13.8444 22.5609 15.9588 21.0155 18.2431C19.4693 20.5282 17.1309 23.0027 14.0003 25.6666Z" fill="#0090D9"/>
</svg>
