<svg width="51" height="51" viewBox="0 0 51 51" fill="none" xmlns="http://www.w3.org/2000/svg">
<g clip-path="url(#clip0_52_408)">
<path d="M9.45338 19.63H6.11475V38.7851H9.45338V19.63Z" fill="#F8F7F7"/>
<path d="M15.1736 19.63H11.835V38.7851H15.1736V19.63Z" fill="#F8F7F7"/>
<path d="M21.3687 19.63H18.03V38.7851H21.3687V19.63Z" fill="#F8F7F7"/>
<path d="M27.1766 19.63H23.838V38.7851H27.1766V19.63Z" fill="#F8F7F7"/>
<path d="M33.1818 19.63H29.8431V38.7851H33.1818V19.63Z" fill="#F8F7F7"/>
<path d="M39.3768 19.63H36.0382V38.7851H39.3768V19.63Z" fill="#F8F7F7"/>
<path d="M44.8999 19.63H41.5613V38.7851H44.8999V19.63Z" fill="#F8F7F7"/>
<path d="M44.8634 16.7078C31.9545 16.737 19.0456 16.7662 6.1367 16.7954C5.12853 15.7654 4.12037 14.7353 3.11951 13.7052C18.0301 13.7052 32.948 13.7052 47.8587 13.7052C46.8578 14.7061 45.8642 15.7069 44.8634 16.7078Z" fill="#F8F7F7"/>
<path d="M47.844 41.8315H3.10486V45.1702H47.844V41.8315Z" fill="#F8F7F7"/>
<path d="M50.8685 47.8367H0.0803223V50.9342H50.8685V47.8367Z" fill="#F8F7F7"/>
<path d="M51 12.2003L25.511 3.33863V0L51 9.00774V12.2003Z" fill="#F8F7F7"/>
<path d="M0 12.2003L25.489 3.33863V0L0 9.00774V12.2003Z" fill="#F8F7F7"/>
</g>
<defs>
<clipPath id="clip0_52_408">
<rect width="51" height="50.9343" fill="white"/>
</clipPath>
</defs>
</svg>
