<svg width="24" height="24" viewBox="0 0 24 24" fill="none" xmlns="http://www.w3.org/2000/svg">
<path d="M4.67583 10.0621C6.53583 13.7175 9.5325 16.7142 13.1879 18.5742L16.0296 15.7325C16.3912 15.3708 16.895 15.2675 17.3471 15.4096C18.7938 15.8875 20.3438 16.1458 21.9583 16.1458C22.3009 16.1458 22.6294 16.2819 22.8717 16.5242C23.1139 16.7664 23.25 17.0949 23.25 17.4375V21.9583C23.25 22.3009 23.1139 22.6294 22.8717 22.8717C22.6294 23.1139 22.3009 23.25 21.9583 23.25C16.1346 23.25 10.5494 20.9365 6.43145 16.8186C2.31346 12.7006 0 7.11538 0 1.29167C0 0.949095 0.136086 0.620555 0.37832 0.37832C0.620555 0.136086 0.949095 0 1.29167 0H5.8125C6.15507 0 6.48361 0.136086 6.72585 0.37832C6.96808 0.620555 7.10417 0.949095 7.10417 1.29167C7.10417 2.90625 7.3625 4.45625 7.84042 5.90292C7.9825 6.355 7.87917 6.85875 7.5175 7.22042L4.67583 10.0621Z" fill="#0090D9"/>
</svg>
