<svg width="45" height="44" viewBox="0 0 45 44" fill="none" xmlns="http://www.w3.org/2000/svg">
<path d="M22.5 0C10.08 0 0 9.856 0 22C0 34.144 10.08 44 22.5 44C34.92 44 45 34.144 45 22C45 9.856 34.92 0 22.5 0ZM32.94 14.96C32.6025 18.436 31.14 26.884 30.3975 30.778C30.0825 32.428 29.4525 32.978 28.8675 33.044C27.5625 33.154 26.5725 32.208 25.3125 31.394C23.3325 30.118 22.2075 29.326 20.295 28.094C18.0675 26.664 19.5075 25.872 20.79 24.596C21.1275 24.266 26.8875 19.14 27 18.678C27.0156 18.608 27.0135 18.5354 26.9939 18.4664C26.9743 18.3974 26.9378 18.3341 26.8875 18.282C26.7525 18.172 26.5725 18.216 26.415 18.238C26.2125 18.282 23.0625 20.328 16.92 24.376C16.02 24.97 15.21 25.278 14.49 25.256C13.68 25.234 12.15 24.816 11.0025 24.442C9.585 24.002 8.4825 23.76 8.5725 22.99C8.6175 22.594 9.18 22.198 10.2375 21.78C16.8075 18.986 21.1725 17.138 23.355 16.258C29.61 13.706 30.8925 13.266 31.7475 13.266C31.9275 13.266 32.355 13.31 32.625 13.53C32.85 13.706 32.9175 13.948 32.94 14.124C32.9175 14.256 32.9625 14.652 32.94 14.96Z" fill="#0090D9"/>
</svg>
