<svg width="45" height="44" viewBox="0 0 45 44" fill="none" xmlns="http://www.w3.org/2000/svg">
<path d="M22.5 0C10.0734 0 0 9.84958 0 22C0 34.1504 10.0734 44 22.5 44C34.9266 44 45 34.1504 45 22C45 9.84958 34.9266 0 22.5 0ZM31.1531 24.821C31.1531 24.821 33.143 26.7415 33.6328 27.6329C33.6469 27.6512 33.6539 27.6696 33.6586 27.6787C33.8578 28.0065 33.9047 28.2608 33.8063 28.451C33.6422 28.7673 33.0797 28.9231 32.8875 28.9369H29.3719C29.1281 28.9369 28.6172 28.875 27.9984 28.4579C27.5227 28.1325 27.0539 27.5985 26.5969 27.0783C25.9148 26.3037 25.3242 25.6346 24.7289 25.6346C24.6533 25.6345 24.5781 25.6461 24.5063 25.669C24.0563 25.811 23.4797 26.439 23.4797 28.1119C23.4797 28.6344 23.0578 28.9346 22.7602 28.9346H21.15C20.6016 28.9346 17.7445 28.7467 15.2133 26.1365C12.1148 22.9396 9.32578 16.5275 9.30234 16.4679C9.12656 16.0531 9.48984 15.8308 9.88594 15.8308H13.4367C13.9102 15.8308 14.0648 16.1127 14.1727 16.3625C14.2992 16.6535 14.7633 17.8108 15.525 19.1125C16.7602 21.2346 17.5172 22.0962 18.1242 22.0962C18.238 22.0949 18.3498 22.0666 18.45 22.0137C19.2422 21.5829 19.0945 18.8215 19.0594 18.2485C19.0594 18.1408 19.057 17.0133 18.6516 16.4725C18.3609 16.0806 17.8664 15.9317 17.5664 15.8767C17.6878 15.7128 17.8478 15.58 18.0328 15.4894C18.5766 15.2235 19.5563 15.1846 20.5289 15.1846H21.0703C22.125 15.1983 22.3969 15.2648 22.7789 15.3587C23.5523 15.5398 23.5688 16.0279 23.5008 17.6985C23.4797 18.1729 23.4586 18.7092 23.4586 19.3417C23.4586 19.4792 23.4516 19.6258 23.4516 19.7817C23.4281 20.6319 23.4 21.5967 24.0141 21.9931C24.0942 22.0422 24.1867 22.0684 24.2813 22.0687C24.4945 22.0687 25.1367 22.0687 26.8758 19.1515C27.4121 18.2125 27.8782 17.2367 28.2703 16.2319C28.3055 16.1723 28.4086 15.989 28.5305 15.9179C28.6204 15.8731 28.7201 15.8503 28.8211 15.8515H32.9953C33.45 15.8515 33.7617 15.9179 33.8203 16.0898C33.9234 16.3625 33.8016 17.1944 31.8961 19.7175L31.0453 20.8152C29.318 23.029 29.318 23.1412 31.1531 24.821Z" fill="#0090D9"/>
</svg>
